[img]http://i.imgur.com/03KAQ.jpg[/img]


[code]

Dredd.2012.480p.BDRip.XViD.AC3-26k
 
http://www.imdb.com/title/tt1343727

Plot:

In a violent, futuristic city where the police have the authority to act as judge, jury and executioner, a cop 
teams with a trainee to take down a gang that deals the reality-altering drug, SLO-MO.

Sources - VIDEO: Dredd.2012.1080p.3D+2D.Blu-ray.Re-encoded.AVC.DTS-HDMA7.1-3DT ..... thanks .... :P
          AUDIO: Dredd.2012.1080p.3D+2D.Blu-ray.Re-encoded.AVC.DTS-HDMA7.1-3DT ..... thanks .... :P

 
Format                                   : AVI
Format/Info                              : Audio Video Interleave
File size                                : 1.69 GiB
Duration                                 : 1h 35mn
Overall bit rate                         : 2 519 Kbps

Video
ID                                       : 0
Format                                   : MPEG-4 Visual
Format profile                           : Advanced Simple@L5
Format settings, BVOP                    : 2
Format settings, QPel                    : No
Format settings, GMC                     : No warppoints
Format settings, Matrix                  : Default (H.263)
Codec ID                                 : XVID
Codec ID/Hint                            : XviD
Duration                                 : 1h 35mn
Bit rate                                 : 2 000 Kbps
Width                                    : 720 pixels
Height                                   : 304 pixels
Display aspect ratio                     : 2.35:1
Frame rate                               : 23.976 fps
Color space                              : YUV
Chroma subsampling                       : 4:2:0
Bit depth                                : 8 bits
Scan type                                : Progressive
Compression mode                         : Lossy
Bits/(Pixel*Frame)                       : 0.381
Stream size                              : 1.34 GiB (79%)
Writing library                          : XviD 1.2.1 (UTC 2008-12-04)

Audio
ID                                       : 1
Format                                   : AC-3
Format/Info                              : Audio Coding 3
Mode extension                           : CM (complete main)
Format settings, Endianness              : Big
Codec ID                                 : 2000
Duration                                 : 1h 35mn
Bit rate mode                            : Constant
Bit rate                                 : 512 Kbps
Channel(s)                               : 6 channels
Channel positions                        : Front: L C R, Side: L R, LFE
Sampling rate                            : 48.0 KHz
Bit depth                                : 16 bits
Compression mode                         : Lossy
Stream size                              : 351 MiB (20%)
Alignment                                : Aligned on interleaves
Interleave, duration                     : 64 ms (1.53 video frames)
Interleave, preload duration             : 192 ms
Title                                    : 512

Notes -

Took the BD made a script to make magic happen and this is the outcome.. enjoy

[/code]

Screens:

[img]http://i.imgur.com/msHKe.png[/img]
[img]http://i.imgur.com/uSBou.png[/img]
[img]http://i.imgur.com/83aa3.png[/img]
[img]http://i.imgur.com/PpFc6.png[/img]
[img]http://i.imgur.com/7utXw.jpg[/img]
[img]http://imageshack.us/a/img819/396/64772129.png[/img]
[img]http://imageshack.us/a/img842/8905/97456969.png[/img]
[img]http://imageshack.us/a/img525/9898/17113228.png[/img]
[img]http://imageshack.us/a/img705/3901/53279332.png[/img]
[img]http://imageshack.us/a/img824/7821/37526269.png[/img]

Greetz:
XtremeEncode|CM8|RX|VISION|HDSCENE|xTriLL|ADTRG|CRYS|REMIXHD|HS|Tommiecook
BIDA|RX|REFILL|INSPiRAL|AXED|HOPE|Anonymous|GooN|NOIR|Blackjesus|Gabroo Punjab Deh
|UNiQUE|RESiSTANCE|TRiNiTY|LEGION

To all the people who have helped me, you know who you are

Anything to offer email us @: 26k@hushmail.me 